<mxfile host="app.diagrams.net" modified="2023-05-26T01:45:28.138Z" agent="Mozilla/5.0 (Windows NT 10.0; Win64; x64) AppleWebKit/537.36 (KHTML, like Gecko) Chrome/113.0.0.0 Safari/537.36" etag="TTm9xdnzXQvVoxHvtYFN" version="21.3.3" type="device" pages="2">
  <diagram name="Halaman-1" id="4l0QCdkOLQwiPlxr2sUl">
    <mxGraphModel dx="1050" dy="541" grid="1" gridSize="10" guides="1" tooltips="1" connect="1" arrows="1" fold="1" page="1" pageScale="1" pageWidth="827" pageHeight="1169" math="0" shadow="0">
      <root>
        <mxCell id="0" />
        <mxCell id="1" parent="0" />
        <mxCell id="iNHYfL15a6KN0ZhvVGCh-1" value="Barang" style="shape=table;startSize=30;container=1;collapsible=1;childLayout=tableLayout;fixedRows=1;rowLines=0;fontStyle=1;align=center;resizeLast=1;html=1;" parent="1" vertex="1">
          <mxGeometry x="160" y="40" width="180" height="180" as="geometry" />
        </mxCell>
        <mxCell id="iNHYfL15a6KN0ZhvVGCh-2" value="" style="shape=tableRow;horizontal=0;startSize=0;swimlaneHead=0;swimlaneBody=0;fillColor=none;collapsible=0;dropTarget=0;points=[[0,0.5],[1,0.5]];portConstraint=eastwest;top=0;left=0;right=0;bottom=1;" parent="iNHYfL15a6KN0ZhvVGCh-1" vertex="1">
          <mxGeometry y="30" width="180" height="30" as="geometry" />
        </mxCell>
        <mxCell id="iNHYfL15a6KN0ZhvVGCh-3" value="PK" style="shape=partialRectangle;connectable=0;fillColor=none;top=0;left=0;bottom=0;right=0;fontStyle=1;overflow=hidden;whiteSpace=wrap;html=1;" parent="iNHYfL15a6KN0ZhvVGCh-2" vertex="1">
          <mxGeometry width="30" height="30" as="geometry">
            <mxRectangle width="30" height="30" as="alternateBounds" />
          </mxGeometry>
        </mxCell>
        <mxCell id="iNHYfL15a6KN0ZhvVGCh-4" value="id" style="shape=partialRectangle;connectable=0;fillColor=none;top=0;left=0;bottom=0;right=0;align=left;spacingLeft=6;fontStyle=5;overflow=hidden;whiteSpace=wrap;html=1;" parent="iNHYfL15a6KN0ZhvVGCh-2" vertex="1">
          <mxGeometry x="30" width="150" height="30" as="geometry">
            <mxRectangle width="150" height="30" as="alternateBounds" />
          </mxGeometry>
        </mxCell>
        <mxCell id="iNHYfL15a6KN0ZhvVGCh-5" value="" style="shape=tableRow;horizontal=0;startSize=0;swimlaneHead=0;swimlaneBody=0;fillColor=none;collapsible=0;dropTarget=0;points=[[0,0.5],[1,0.5]];portConstraint=eastwest;top=0;left=0;right=0;bottom=0;" parent="iNHYfL15a6KN0ZhvVGCh-1" vertex="1">
          <mxGeometry y="60" width="180" height="30" as="geometry" />
        </mxCell>
        <mxCell id="iNHYfL15a6KN0ZhvVGCh-6" value="FK" style="shape=partialRectangle;connectable=0;fillColor=none;top=0;left=0;bottom=0;right=0;editable=1;overflow=hidden;whiteSpace=wrap;html=1;fontStyle=1" parent="iNHYfL15a6KN0ZhvVGCh-5" vertex="1">
          <mxGeometry width="30" height="30" as="geometry">
            <mxRectangle width="30" height="30" as="alternateBounds" />
          </mxGeometry>
        </mxCell>
        <mxCell id="iNHYfL15a6KN0ZhvVGCh-7" value="toko_id : int" style="shape=partialRectangle;connectable=0;fillColor=none;top=0;left=0;bottom=0;right=0;align=left;spacingLeft=6;overflow=hidden;whiteSpace=wrap;html=1;" parent="iNHYfL15a6KN0ZhvVGCh-5" vertex="1">
          <mxGeometry x="30" width="150" height="30" as="geometry">
            <mxRectangle width="150" height="30" as="alternateBounds" />
          </mxGeometry>
        </mxCell>
        <mxCell id="iNHYfL15a6KN0ZhvVGCh-8" value="" style="shape=tableRow;horizontal=0;startSize=0;swimlaneHead=0;swimlaneBody=0;fillColor=none;collapsible=0;dropTarget=0;points=[[0,0.5],[1,0.5]];portConstraint=eastwest;top=0;left=0;right=0;bottom=0;" parent="iNHYfL15a6KN0ZhvVGCh-1" vertex="1">
          <mxGeometry y="90" width="180" height="30" as="geometry" />
        </mxCell>
        <mxCell id="iNHYfL15a6KN0ZhvVGCh-9" value="" style="shape=partialRectangle;connectable=0;fillColor=none;top=0;left=0;bottom=0;right=0;editable=1;overflow=hidden;whiteSpace=wrap;html=1;" parent="iNHYfL15a6KN0ZhvVGCh-8" vertex="1">
          <mxGeometry width="30" height="30" as="geometry">
            <mxRectangle width="30" height="30" as="alternateBounds" />
          </mxGeometry>
        </mxCell>
        <mxCell id="iNHYfL15a6KN0ZhvVGCh-10" value="nama : varchar" style="shape=partialRectangle;connectable=0;fillColor=none;top=0;left=0;bottom=0;right=0;align=left;spacingLeft=6;overflow=hidden;whiteSpace=wrap;html=1;" parent="iNHYfL15a6KN0ZhvVGCh-8" vertex="1">
          <mxGeometry x="30" width="150" height="30" as="geometry">
            <mxRectangle width="150" height="30" as="alternateBounds" />
          </mxGeometry>
        </mxCell>
        <mxCell id="iNHYfL15a6KN0ZhvVGCh-11" value="" style="shape=tableRow;horizontal=0;startSize=0;swimlaneHead=0;swimlaneBody=0;fillColor=none;collapsible=0;dropTarget=0;points=[[0,0.5],[1,0.5]];portConstraint=eastwest;top=0;left=0;right=0;bottom=0;" parent="iNHYfL15a6KN0ZhvVGCh-1" vertex="1">
          <mxGeometry y="120" width="180" height="30" as="geometry" />
        </mxCell>
        <mxCell id="iNHYfL15a6KN0ZhvVGCh-12" value="" style="shape=partialRectangle;connectable=0;fillColor=none;top=0;left=0;bottom=0;right=0;editable=1;overflow=hidden;whiteSpace=wrap;html=1;" parent="iNHYfL15a6KN0ZhvVGCh-11" vertex="1">
          <mxGeometry width="30" height="30" as="geometry">
            <mxRectangle width="30" height="30" as="alternateBounds" />
          </mxGeometry>
        </mxCell>
        <mxCell id="iNHYfL15a6KN0ZhvVGCh-13" value="stok : int" style="shape=partialRectangle;connectable=0;fillColor=none;top=0;left=0;bottom=0;right=0;align=left;spacingLeft=6;overflow=hidden;whiteSpace=wrap;html=1;" parent="iNHYfL15a6KN0ZhvVGCh-11" vertex="1">
          <mxGeometry x="30" width="150" height="30" as="geometry">
            <mxRectangle width="150" height="30" as="alternateBounds" />
          </mxGeometry>
        </mxCell>
        <mxCell id="iNHYfL15a6KN0ZhvVGCh-14" value="harga : float" style="shape=partialRectangle;connectable=0;fillColor=none;top=0;left=0;bottom=0;right=0;align=left;spacingLeft=6;overflow=hidden;whiteSpace=wrap;html=1;" parent="1" vertex="1">
          <mxGeometry x="190" y="190" width="150" height="30" as="geometry">
            <mxRectangle width="150" height="30" as="alternateBounds" />
          </mxGeometry>
        </mxCell>
        <mxCell id="iNHYfL15a6KN0ZhvVGCh-16" value="" style="endArrow=none;html=1;rounded=0;" parent="1" edge="1">
          <mxGeometry width="50" height="50" relative="1" as="geometry">
            <mxPoint x="190" y="220" as="sourcePoint" />
            <mxPoint x="190" y="190" as="targetPoint" />
          </mxGeometry>
        </mxCell>
        <mxCell id="iNHYfL15a6KN0ZhvVGCh-17" value="Pembeli" style="shape=table;startSize=30;container=1;collapsible=1;childLayout=tableLayout;fixedRows=1;rowLines=0;fontStyle=1;align=center;resizeLast=1;html=1;" parent="1" vertex="1">
          <mxGeometry x="476" y="305" width="180" height="180" as="geometry" />
        </mxCell>
        <mxCell id="iNHYfL15a6KN0ZhvVGCh-18" value="" style="shape=tableRow;horizontal=0;startSize=0;swimlaneHead=0;swimlaneBody=0;fillColor=none;collapsible=0;dropTarget=0;points=[[0,0.5],[1,0.5]];portConstraint=eastwest;top=0;left=0;right=0;bottom=1;" parent="iNHYfL15a6KN0ZhvVGCh-17" vertex="1">
          <mxGeometry y="30" width="180" height="30" as="geometry" />
        </mxCell>
        <mxCell id="iNHYfL15a6KN0ZhvVGCh-19" value="PK" style="shape=partialRectangle;connectable=0;fillColor=none;top=0;left=0;bottom=0;right=0;fontStyle=1;overflow=hidden;whiteSpace=wrap;html=1;" parent="iNHYfL15a6KN0ZhvVGCh-18" vertex="1">
          <mxGeometry width="30" height="30" as="geometry">
            <mxRectangle width="30" height="30" as="alternateBounds" />
          </mxGeometry>
        </mxCell>
        <mxCell id="iNHYfL15a6KN0ZhvVGCh-20" value="id" style="shape=partialRectangle;connectable=0;fillColor=none;top=0;left=0;bottom=0;right=0;align=left;spacingLeft=6;fontStyle=5;overflow=hidden;whiteSpace=wrap;html=1;" parent="iNHYfL15a6KN0ZhvVGCh-18" vertex="1">
          <mxGeometry x="30" width="150" height="30" as="geometry">
            <mxRectangle width="150" height="30" as="alternateBounds" />
          </mxGeometry>
        </mxCell>
        <mxCell id="iNHYfL15a6KN0ZhvVGCh-21" value="" style="shape=tableRow;horizontal=0;startSize=0;swimlaneHead=0;swimlaneBody=0;fillColor=none;collapsible=0;dropTarget=0;points=[[0,0.5],[1,0.5]];portConstraint=eastwest;top=0;left=0;right=0;bottom=0;" parent="iNHYfL15a6KN0ZhvVGCh-17" vertex="1">
          <mxGeometry y="60" width="180" height="30" as="geometry" />
        </mxCell>
        <mxCell id="iNHYfL15a6KN0ZhvVGCh-22" value="" style="shape=partialRectangle;connectable=0;fillColor=none;top=0;left=0;bottom=0;right=0;editable=1;overflow=hidden;whiteSpace=wrap;html=1;" parent="iNHYfL15a6KN0ZhvVGCh-21" vertex="1">
          <mxGeometry width="30" height="30" as="geometry">
            <mxRectangle width="30" height="30" as="alternateBounds" />
          </mxGeometry>
        </mxCell>
        <mxCell id="iNHYfL15a6KN0ZhvVGCh-23" value="nama : varchar" style="shape=partialRectangle;connectable=0;fillColor=none;top=0;left=0;bottom=0;right=0;align=left;spacingLeft=6;overflow=hidden;whiteSpace=wrap;html=1;" parent="iNHYfL15a6KN0ZhvVGCh-21" vertex="1">
          <mxGeometry x="30" width="150" height="30" as="geometry">
            <mxRectangle width="150" height="30" as="alternateBounds" />
          </mxGeometry>
        </mxCell>
        <mxCell id="iNHYfL15a6KN0ZhvVGCh-24" value="" style="shape=tableRow;horizontal=0;startSize=0;swimlaneHead=0;swimlaneBody=0;fillColor=none;collapsible=0;dropTarget=0;points=[[0,0.5],[1,0.5]];portConstraint=eastwest;top=0;left=0;right=0;bottom=0;" parent="iNHYfL15a6KN0ZhvVGCh-17" vertex="1">
          <mxGeometry y="90" width="180" height="30" as="geometry" />
        </mxCell>
        <mxCell id="iNHYfL15a6KN0ZhvVGCh-25" value="" style="shape=partialRectangle;connectable=0;fillColor=none;top=0;left=0;bottom=0;right=0;editable=1;overflow=hidden;whiteSpace=wrap;html=1;" parent="iNHYfL15a6KN0ZhvVGCh-24" vertex="1">
          <mxGeometry width="30" height="30" as="geometry">
            <mxRectangle width="30" height="30" as="alternateBounds" />
          </mxGeometry>
        </mxCell>
        <mxCell id="iNHYfL15a6KN0ZhvVGCh-26" value="jenis_kelamin : varchar" style="shape=partialRectangle;connectable=0;fillColor=none;top=0;left=0;bottom=0;right=0;align=left;spacingLeft=6;overflow=hidden;whiteSpace=wrap;html=1;" parent="iNHYfL15a6KN0ZhvVGCh-24" vertex="1">
          <mxGeometry x="30" width="150" height="30" as="geometry">
            <mxRectangle width="150" height="30" as="alternateBounds" />
          </mxGeometry>
        </mxCell>
        <mxCell id="iNHYfL15a6KN0ZhvVGCh-27" value="" style="shape=tableRow;horizontal=0;startSize=0;swimlaneHead=0;swimlaneBody=0;fillColor=none;collapsible=0;dropTarget=0;points=[[0,0.5],[1,0.5]];portConstraint=eastwest;top=0;left=0;right=0;bottom=0;" parent="iNHYfL15a6KN0ZhvVGCh-17" vertex="1">
          <mxGeometry y="120" width="180" height="30" as="geometry" />
        </mxCell>
        <mxCell id="iNHYfL15a6KN0ZhvVGCh-28" value="" style="shape=partialRectangle;connectable=0;fillColor=none;top=0;left=0;bottom=0;right=0;editable=1;overflow=hidden;whiteSpace=wrap;html=1;" parent="iNHYfL15a6KN0ZhvVGCh-27" vertex="1">
          <mxGeometry width="30" height="30" as="geometry">
            <mxRectangle width="30" height="30" as="alternateBounds" />
          </mxGeometry>
        </mxCell>
        <mxCell id="iNHYfL15a6KN0ZhvVGCh-29" value="alamat : varchar" style="shape=partialRectangle;connectable=0;fillColor=none;top=0;left=0;bottom=0;right=0;align=left;spacingLeft=6;overflow=hidden;whiteSpace=wrap;html=1;" parent="iNHYfL15a6KN0ZhvVGCh-27" vertex="1">
          <mxGeometry x="30" width="150" height="30" as="geometry">
            <mxRectangle width="150" height="30" as="alternateBounds" />
          </mxGeometry>
        </mxCell>
        <mxCell id="iNHYfL15a6KN0ZhvVGCh-30" value="no_telp : int" style="shape=partialRectangle;connectable=0;fillColor=none;top=0;left=0;bottom=0;right=0;align=left;spacingLeft=6;overflow=hidden;whiteSpace=wrap;html=1;" parent="1" vertex="1">
          <mxGeometry x="506" y="455" width="150" height="30" as="geometry">
            <mxRectangle width="150" height="30" as="alternateBounds" />
          </mxGeometry>
        </mxCell>
        <mxCell id="iNHYfL15a6KN0ZhvVGCh-31" value="" style="endArrow=none;html=1;rounded=0;" parent="1" edge="1">
          <mxGeometry width="50" height="50" relative="1" as="geometry">
            <mxPoint x="506" y="485" as="sourcePoint" />
            <mxPoint x="506" y="455" as="targetPoint" />
          </mxGeometry>
        </mxCell>
        <mxCell id="09BDtuAw9PA1eDxB35Uu-1" value=": int" style="text;html=1;strokeColor=none;fillColor=none;align=center;verticalAlign=middle;whiteSpace=wrap;rounded=0;" vertex="1" parent="1">
          <mxGeometry x="210" y="70" width="30" height="30" as="geometry" />
        </mxCell>
        <mxCell id="09BDtuAw9PA1eDxB35Uu-19" value="Transaksi" style="shape=table;startSize=30;container=1;collapsible=1;childLayout=tableLayout;fixedRows=1;rowLines=0;fontStyle=1;align=center;resizeLast=1;html=1;" vertex="1" parent="1">
          <mxGeometry x="160" y="305" width="180" height="210" as="geometry" />
        </mxCell>
        <mxCell id="09BDtuAw9PA1eDxB35Uu-20" value="" style="shape=tableRow;horizontal=0;startSize=0;swimlaneHead=0;swimlaneBody=0;fillColor=none;collapsible=0;dropTarget=0;points=[[0,0.5],[1,0.5]];portConstraint=eastwest;top=0;left=0;right=0;bottom=1;" vertex="1" parent="09BDtuAw9PA1eDxB35Uu-19">
          <mxGeometry y="30" width="180" height="30" as="geometry" />
        </mxCell>
        <mxCell id="09BDtuAw9PA1eDxB35Uu-21" value="PK" style="shape=partialRectangle;connectable=0;fillColor=none;top=0;left=0;bottom=0;right=0;fontStyle=1;overflow=hidden;whiteSpace=wrap;html=1;" vertex="1" parent="09BDtuAw9PA1eDxB35Uu-20">
          <mxGeometry width="30" height="30" as="geometry">
            <mxRectangle width="30" height="30" as="alternateBounds" />
          </mxGeometry>
        </mxCell>
        <mxCell id="09BDtuAw9PA1eDxB35Uu-22" value="id" style="shape=partialRectangle;connectable=0;fillColor=none;top=0;left=0;bottom=0;right=0;align=left;spacingLeft=6;fontStyle=5;overflow=hidden;whiteSpace=wrap;html=1;" vertex="1" parent="09BDtuAw9PA1eDxB35Uu-20">
          <mxGeometry x="30" width="150" height="30" as="geometry">
            <mxRectangle width="150" height="30" as="alternateBounds" />
          </mxGeometry>
        </mxCell>
        <mxCell id="09BDtuAw9PA1eDxB35Uu-23" value="" style="shape=tableRow;horizontal=0;startSize=0;swimlaneHead=0;swimlaneBody=0;fillColor=none;collapsible=0;dropTarget=0;points=[[0,0.5],[1,0.5]];portConstraint=eastwest;top=0;left=0;right=0;bottom=0;" vertex="1" parent="09BDtuAw9PA1eDxB35Uu-19">
          <mxGeometry y="60" width="180" height="30" as="geometry" />
        </mxCell>
        <mxCell id="09BDtuAw9PA1eDxB35Uu-24" value="FK" style="shape=partialRectangle;connectable=0;fillColor=none;top=0;left=0;bottom=0;right=0;editable=1;overflow=hidden;whiteSpace=wrap;html=1;fontStyle=1" vertex="1" parent="09BDtuAw9PA1eDxB35Uu-23">
          <mxGeometry width="30" height="30" as="geometry">
            <mxRectangle width="30" height="30" as="alternateBounds" />
          </mxGeometry>
        </mxCell>
        <mxCell id="09BDtuAw9PA1eDxB35Uu-25" value="pembeli_id : int" style="shape=partialRectangle;connectable=0;fillColor=none;top=0;left=0;bottom=0;right=0;align=left;spacingLeft=6;overflow=hidden;whiteSpace=wrap;html=1;" vertex="1" parent="09BDtuAw9PA1eDxB35Uu-23">
          <mxGeometry x="30" width="150" height="30" as="geometry">
            <mxRectangle width="150" height="30" as="alternateBounds" />
          </mxGeometry>
        </mxCell>
        <mxCell id="09BDtuAw9PA1eDxB35Uu-26" value="" style="shape=tableRow;horizontal=0;startSize=0;swimlaneHead=0;swimlaneBody=0;fillColor=none;collapsible=0;dropTarget=0;points=[[0,0.5],[1,0.5]];portConstraint=eastwest;top=0;left=0;right=0;bottom=0;" vertex="1" parent="09BDtuAw9PA1eDxB35Uu-19">
          <mxGeometry y="90" width="180" height="30" as="geometry" />
        </mxCell>
        <mxCell id="09BDtuAw9PA1eDxB35Uu-27" value="FK" style="shape=partialRectangle;connectable=0;fillColor=none;top=0;left=0;bottom=0;right=0;editable=1;overflow=hidden;whiteSpace=wrap;html=1;fontStyle=1" vertex="1" parent="09BDtuAw9PA1eDxB35Uu-26">
          <mxGeometry width="30" height="30" as="geometry">
            <mxRectangle width="30" height="30" as="alternateBounds" />
          </mxGeometry>
        </mxCell>
        <mxCell id="09BDtuAw9PA1eDxB35Uu-28" value="barang_id : int" style="shape=partialRectangle;connectable=0;fillColor=none;top=0;left=0;bottom=0;right=0;align=left;spacingLeft=6;overflow=hidden;whiteSpace=wrap;html=1;" vertex="1" parent="09BDtuAw9PA1eDxB35Uu-26">
          <mxGeometry x="30" width="150" height="30" as="geometry">
            <mxRectangle width="150" height="30" as="alternateBounds" />
          </mxGeometry>
        </mxCell>
        <mxCell id="09BDtuAw9PA1eDxB35Uu-29" value="" style="shape=tableRow;horizontal=0;startSize=0;swimlaneHead=0;swimlaneBody=0;fillColor=none;collapsible=0;dropTarget=0;points=[[0,0.5],[1,0.5]];portConstraint=eastwest;top=0;left=0;right=0;bottom=0;" vertex="1" parent="09BDtuAw9PA1eDxB35Uu-19">
          <mxGeometry y="120" width="180" height="30" as="geometry" />
        </mxCell>
        <mxCell id="09BDtuAw9PA1eDxB35Uu-30" value="" style="shape=partialRectangle;connectable=0;fillColor=none;top=0;left=0;bottom=0;right=0;editable=1;overflow=hidden;whiteSpace=wrap;html=1;" vertex="1" parent="09BDtuAw9PA1eDxB35Uu-29">
          <mxGeometry width="30" height="30" as="geometry">
            <mxRectangle width="30" height="30" as="alternateBounds" />
          </mxGeometry>
        </mxCell>
        <mxCell id="09BDtuAw9PA1eDxB35Uu-31" value="jumlah : int" style="shape=partialRectangle;connectable=0;fillColor=none;top=0;left=0;bottom=0;right=0;align=left;spacingLeft=6;overflow=hidden;whiteSpace=wrap;html=1;" vertex="1" parent="09BDtuAw9PA1eDxB35Uu-29">
          <mxGeometry x="30" width="150" height="30" as="geometry">
            <mxRectangle width="150" height="30" as="alternateBounds" />
          </mxGeometry>
        </mxCell>
        <mxCell id="09BDtuAw9PA1eDxB35Uu-32" value="total_harga : float" style="shape=partialRectangle;connectable=0;fillColor=none;top=0;left=0;bottom=0;right=0;align=left;spacingLeft=6;overflow=hidden;whiteSpace=wrap;html=1;" vertex="1" parent="1">
          <mxGeometry x="190" y="455" width="150" height="30" as="geometry">
            <mxRectangle width="150" height="30" as="alternateBounds" />
          </mxGeometry>
        </mxCell>
        <mxCell id="09BDtuAw9PA1eDxB35Uu-33" value="" style="endArrow=none;html=1;rounded=0;" edge="1" parent="1">
          <mxGeometry width="50" height="50" relative="1" as="geometry">
            <mxPoint x="190" y="515" as="sourcePoint" />
            <mxPoint x="190" y="455" as="targetPoint" />
          </mxGeometry>
        </mxCell>
        <mxCell id="09BDtuAw9PA1eDxB35Uu-37" value="Toko" style="shape=table;startSize=30;container=1;collapsible=1;childLayout=tableLayout;fixedRows=1;rowLines=0;fontStyle=1;align=center;resizeLast=1;html=1;" vertex="1" parent="1">
          <mxGeometry x="456" y="40" width="180" height="150" as="geometry" />
        </mxCell>
        <mxCell id="09BDtuAw9PA1eDxB35Uu-38" value="" style="shape=tableRow;horizontal=0;startSize=0;swimlaneHead=0;swimlaneBody=0;fillColor=none;collapsible=0;dropTarget=0;points=[[0,0.5],[1,0.5]];portConstraint=eastwest;top=0;left=0;right=0;bottom=1;" vertex="1" parent="09BDtuAw9PA1eDxB35Uu-37">
          <mxGeometry y="30" width="180" height="30" as="geometry" />
        </mxCell>
        <mxCell id="09BDtuAw9PA1eDxB35Uu-39" value="PK" style="shape=partialRectangle;connectable=0;fillColor=none;top=0;left=0;bottom=0;right=0;fontStyle=1;overflow=hidden;whiteSpace=wrap;html=1;" vertex="1" parent="09BDtuAw9PA1eDxB35Uu-38">
          <mxGeometry width="30" height="30" as="geometry">
            <mxRectangle width="30" height="30" as="alternateBounds" />
          </mxGeometry>
        </mxCell>
        <mxCell id="09BDtuAw9PA1eDxB35Uu-40" value="id" style="shape=partialRectangle;connectable=0;fillColor=none;top=0;left=0;bottom=0;right=0;align=left;spacingLeft=6;fontStyle=5;overflow=hidden;whiteSpace=wrap;html=1;" vertex="1" parent="09BDtuAw9PA1eDxB35Uu-38">
          <mxGeometry x="30" width="150" height="30" as="geometry">
            <mxRectangle width="150" height="30" as="alternateBounds" />
          </mxGeometry>
        </mxCell>
        <mxCell id="09BDtuAw9PA1eDxB35Uu-41" value="" style="shape=tableRow;horizontal=0;startSize=0;swimlaneHead=0;swimlaneBody=0;fillColor=none;collapsible=0;dropTarget=0;points=[[0,0.5],[1,0.5]];portConstraint=eastwest;top=0;left=0;right=0;bottom=0;" vertex="1" parent="09BDtuAw9PA1eDxB35Uu-37">
          <mxGeometry y="60" width="180" height="30" as="geometry" />
        </mxCell>
        <mxCell id="09BDtuAw9PA1eDxB35Uu-42" value="" style="shape=partialRectangle;connectable=0;fillColor=none;top=0;left=0;bottom=0;right=0;editable=1;overflow=hidden;whiteSpace=wrap;html=1;fontStyle=1" vertex="1" parent="09BDtuAw9PA1eDxB35Uu-41">
          <mxGeometry width="30" height="30" as="geometry">
            <mxRectangle width="30" height="30" as="alternateBounds" />
          </mxGeometry>
        </mxCell>
        <mxCell id="09BDtuAw9PA1eDxB35Uu-43" value="nama : varchar" style="shape=partialRectangle;connectable=0;fillColor=none;top=0;left=0;bottom=0;right=0;align=left;spacingLeft=6;overflow=hidden;whiteSpace=wrap;html=1;" vertex="1" parent="09BDtuAw9PA1eDxB35Uu-41">
          <mxGeometry x="30" width="150" height="30" as="geometry">
            <mxRectangle width="150" height="30" as="alternateBounds" />
          </mxGeometry>
        </mxCell>
        <mxCell id="09BDtuAw9PA1eDxB35Uu-44" value="" style="shape=tableRow;horizontal=0;startSize=0;swimlaneHead=0;swimlaneBody=0;fillColor=none;collapsible=0;dropTarget=0;points=[[0,0.5],[1,0.5]];portConstraint=eastwest;top=0;left=0;right=0;bottom=0;" vertex="1" parent="09BDtuAw9PA1eDxB35Uu-37">
          <mxGeometry y="90" width="180" height="30" as="geometry" />
        </mxCell>
        <mxCell id="09BDtuAw9PA1eDxB35Uu-45" value="" style="shape=partialRectangle;connectable=0;fillColor=none;top=0;left=0;bottom=0;right=0;editable=1;overflow=hidden;whiteSpace=wrap;html=1;" vertex="1" parent="09BDtuAw9PA1eDxB35Uu-44">
          <mxGeometry width="30" height="30" as="geometry">
            <mxRectangle width="30" height="30" as="alternateBounds" />
          </mxGeometry>
        </mxCell>
        <mxCell id="09BDtuAw9PA1eDxB35Uu-46" value="alamat : varchar" style="shape=partialRectangle;connectable=0;fillColor=none;top=0;left=0;bottom=0;right=0;align=left;spacingLeft=6;overflow=hidden;whiteSpace=wrap;html=1;" vertex="1" parent="09BDtuAw9PA1eDxB35Uu-44">
          <mxGeometry x="30" width="150" height="30" as="geometry">
            <mxRectangle width="150" height="30" as="alternateBounds" />
          </mxGeometry>
        </mxCell>
        <mxCell id="09BDtuAw9PA1eDxB35Uu-47" value="" style="shape=tableRow;horizontal=0;startSize=0;swimlaneHead=0;swimlaneBody=0;fillColor=none;collapsible=0;dropTarget=0;points=[[0,0.5],[1,0.5]];portConstraint=eastwest;top=0;left=0;right=0;bottom=0;" vertex="1" parent="09BDtuAw9PA1eDxB35Uu-37">
          <mxGeometry y="120" width="180" height="30" as="geometry" />
        </mxCell>
        <mxCell id="09BDtuAw9PA1eDxB35Uu-48" value="" style="shape=partialRectangle;connectable=0;fillColor=none;top=0;left=0;bottom=0;right=0;editable=1;overflow=hidden;whiteSpace=wrap;html=1;" vertex="1" parent="09BDtuAw9PA1eDxB35Uu-47">
          <mxGeometry width="30" height="30" as="geometry">
            <mxRectangle width="30" height="30" as="alternateBounds" />
          </mxGeometry>
        </mxCell>
        <mxCell id="09BDtuAw9PA1eDxB35Uu-49" value="kategori : varchar" style="shape=partialRectangle;connectable=0;fillColor=none;top=0;left=0;bottom=0;right=0;align=left;spacingLeft=6;overflow=hidden;whiteSpace=wrap;html=1;" vertex="1" parent="09BDtuAw9PA1eDxB35Uu-47">
          <mxGeometry x="30" width="150" height="30" as="geometry">
            <mxRectangle width="150" height="30" as="alternateBounds" />
          </mxGeometry>
        </mxCell>
        <mxCell id="09BDtuAw9PA1eDxB35Uu-52" value=": int" style="text;html=1;strokeColor=none;fillColor=none;align=center;verticalAlign=middle;whiteSpace=wrap;rounded=0;" vertex="1" parent="1">
          <mxGeometry x="506" y="70" width="30" height="30" as="geometry" />
        </mxCell>
        <mxCell id="09BDtuAw9PA1eDxB35Uu-53" value="tanggal : date" style="shape=partialRectangle;connectable=0;fillColor=none;top=0;left=0;bottom=0;right=0;align=left;spacingLeft=6;overflow=hidden;whiteSpace=wrap;html=1;" vertex="1" parent="1">
          <mxGeometry x="190" y="485" width="150" height="30" as="geometry">
            <mxRectangle width="150" height="30" as="alternateBounds" />
          </mxGeometry>
        </mxCell>
        <mxCell id="09BDtuAw9PA1eDxB35Uu-54" value=": int" style="text;html=1;strokeColor=none;fillColor=none;align=center;verticalAlign=middle;whiteSpace=wrap;rounded=0;" vertex="1" parent="1">
          <mxGeometry x="210" y="335" width="30" height="30" as="geometry" />
        </mxCell>
        <mxCell id="09BDtuAw9PA1eDxB35Uu-55" value=": int" style="text;html=1;strokeColor=none;fillColor=none;align=center;verticalAlign=middle;whiteSpace=wrap;rounded=0;" vertex="1" parent="1">
          <mxGeometry x="525" y="335" width="30" height="30" as="geometry" />
        </mxCell>
        <mxCell id="09BDtuAw9PA1eDxB35Uu-56" value="" style="edgeStyle=entityRelationEdgeStyle;fontSize=12;html=1;endArrow=ERoneToMany;rounded=0;" edge="1" parent="1" source="iNHYfL15a6KN0ZhvVGCh-17" target="09BDtuAw9PA1eDxB35Uu-19">
          <mxGeometry width="100" height="100" relative="1" as="geometry">
            <mxPoint x="350" y="514" as="sourcePoint" />
            <mxPoint x="450" y="414" as="targetPoint" />
          </mxGeometry>
        </mxCell>
        <mxCell id="09BDtuAw9PA1eDxB35Uu-57" value="" style="edgeStyle=entityRelationEdgeStyle;fontSize=12;html=1;endArrow=ERoneToMany;rounded=0;" edge="1" parent="1" source="09BDtuAw9PA1eDxB35Uu-37" target="iNHYfL15a6KN0ZhvVGCh-1">
          <mxGeometry width="100" height="100" relative="1" as="geometry">
            <mxPoint x="50" y="370" as="sourcePoint" />
            <mxPoint x="150" y="270" as="targetPoint" />
          </mxGeometry>
        </mxCell>
        <mxCell id="oFTL9eAxkj1CIuyd1K15-1" value="" style="edgeStyle=elbowEdgeStyle;fontSize=12;html=1;endArrow=ERoneToMany;rounded=0;elbow=vertical;" edge="1" parent="1" source="iNHYfL15a6KN0ZhvVGCh-1" target="09BDtuAw9PA1eDxB35Uu-19">
          <mxGeometry width="100" height="100" relative="1" as="geometry">
            <mxPoint x="486" y="405" as="sourcePoint" />
            <mxPoint x="350" y="420" as="targetPoint" />
          </mxGeometry>
        </mxCell>
      </root>
    </mxGraphModel>
  </diagram>
  <diagram id="bNJQpHncCwP3jAiYsI9L" name="Halaman-2">
    <mxGraphModel dx="1050" dy="541" grid="1" gridSize="10" guides="1" tooltips="1" connect="1" arrows="1" fold="1" page="1" pageScale="1" pageWidth="827" pageHeight="1169" math="0" shadow="0">
      <root>
        <mxCell id="0" />
        <mxCell id="1" parent="0" />
        <mxCell id="dtMFHtKdHxjo49acTgCn-1" value="id_toko" style="ellipse;whiteSpace=wrap;html=1;align=center;" vertex="1" parent="1">
          <mxGeometry x="158" y="40" width="100" height="40" as="geometry" />
        </mxCell>
        <mxCell id="dtMFHtKdHxjo49acTgCn-2" value="id" style="ellipse;whiteSpace=wrap;html=1;align=center;fontStyle=4;" vertex="1" parent="1">
          <mxGeometry x="258" y="70" width="100" height="40" as="geometry" />
        </mxCell>
        <mxCell id="P-C4tjloRPnvRYGFdIHw-1" value="id" style="ellipse;whiteSpace=wrap;html=1;align=center;fontStyle=4;" vertex="1" parent="1">
          <mxGeometry x="40" y="360" width="100" height="40" as="geometry" />
        </mxCell>
        <mxCell id="P-C4tjloRPnvRYGFdIHw-2" value="id" style="ellipse;whiteSpace=wrap;html=1;align=center;fontStyle=4;" vertex="1" parent="1">
          <mxGeometry x="746" y="290" width="100" height="40" as="geometry" />
        </mxCell>
        <mxCell id="P-C4tjloRPnvRYGFdIHw-3" value="id" style="ellipse;whiteSpace=wrap;html=1;align=center;fontStyle=4;" vertex="1" parent="1">
          <mxGeometry x="597" y="56" width="100" height="40" as="geometry" />
        </mxCell>
        <mxCell id="P-C4tjloRPnvRYGFdIHw-4" value="Barang" style="whiteSpace=wrap;html=1;align=center;" vertex="1" parent="1">
          <mxGeometry x="178" y="140" width="100" height="40" as="geometry" />
        </mxCell>
        <mxCell id="ySXQT9itUy0VhF5xuerT-1" value="Transaksi" style="whiteSpace=wrap;html=1;align=center;" vertex="1" parent="1">
          <mxGeometry x="178" y="400" width="100" height="40" as="geometry" />
        </mxCell>
        <mxCell id="ySXQT9itUy0VhF5xuerT-2" value="Toko" style="whiteSpace=wrap;html=1;align=center;" vertex="1" parent="1">
          <mxGeometry x="627" y="136" width="100" height="40" as="geometry" />
        </mxCell>
        <mxCell id="ySXQT9itUy0VhF5xuerT-3" value="Pembeli" style="whiteSpace=wrap;html=1;align=center;" vertex="1" parent="1">
          <mxGeometry x="650" y="360" width="100" height="40" as="geometry" />
        </mxCell>
        <mxCell id="ivCK7IDDiffH-H41qgAb-1" value="stok" style="ellipse;whiteSpace=wrap;html=1;align=center;" vertex="1" parent="1">
          <mxGeometry x="58" y="70" width="100" height="40" as="geometry" />
        </mxCell>
        <mxCell id="ivCK7IDDiffH-H41qgAb-2" value="nama" style="ellipse;whiteSpace=wrap;html=1;align=center;" vertex="1" parent="1">
          <mxGeometry x="28" y="120" width="100" height="40" as="geometry" />
        </mxCell>
        <mxCell id="ivCK7IDDiffH-H41qgAb-3" value="harga" style="ellipse;whiteSpace=wrap;html=1;align=center;" vertex="1" parent="1">
          <mxGeometry x="28" y="170" width="100" height="40" as="geometry" />
        </mxCell>
        <mxCell id="ivCK7IDDiffH-H41qgAb-4" value="nama" style="ellipse;whiteSpace=wrap;html=1;align=center;" vertex="1" parent="1">
          <mxGeometry x="800" y="340" width="100" height="40" as="geometry" />
        </mxCell>
        <mxCell id="ivCK7IDDiffH-H41qgAb-5" value="nama" style="ellipse;whiteSpace=wrap;html=1;align=center;" vertex="1" parent="1">
          <mxGeometry x="707" y="66" width="100" height="40" as="geometry" />
        </mxCell>
        <mxCell id="ivCK7IDDiffH-H41qgAb-6" value="kategori" style="ellipse;whiteSpace=wrap;html=1;align=center;" vertex="1" parent="1">
          <mxGeometry x="774" y="116" width="100" height="40" as="geometry" />
        </mxCell>
        <mxCell id="itSn3BqU-BL6ogPDw5yf-1" value="alamat" style="ellipse;whiteSpace=wrap;html=1;align=center;" vertex="1" parent="1">
          <mxGeometry x="600" y="440" width="100" height="40" as="geometry" />
        </mxCell>
        <mxCell id="itSn3BqU-BL6ogPDw5yf-2" value="alamat" style="ellipse;whiteSpace=wrap;html=1;align=center;" vertex="1" parent="1">
          <mxGeometry x="767" y="176" width="100" height="40" as="geometry" />
        </mxCell>
        <mxCell id="itSn3BqU-BL6ogPDw5yf-3" value="Memiliki" style="shape=rhombus;perimeter=rhombusPerimeter;whiteSpace=wrap;html=1;align=center;" vertex="1" parent="1">
          <mxGeometry x="400" y="130" width="120" height="60" as="geometry" />
        </mxCell>
        <mxCell id="itSn3BqU-BL6ogPDw5yf-4" value="Melakukan" style="shape=rhombus;perimeter=rhombusPerimeter;whiteSpace=wrap;html=1;align=center;" vertex="1" parent="1">
          <mxGeometry x="414" y="350" width="120" height="60" as="geometry" />
        </mxCell>
        <mxCell id="hZo2cC3H7jz-Q43Mulw--1" value="id_barang" style="ellipse;whiteSpace=wrap;html=1;align=center;" vertex="1" parent="1">
          <mxGeometry x="50" y="460" width="100" height="40" as="geometry" />
        </mxCell>
        <mxCell id="nD-tLIVnVdCgKJPwyJXA-1" value="id_pembeli" style="ellipse;whiteSpace=wrap;html=1;align=center;" vertex="1" parent="1">
          <mxGeometry x="20" y="410" width="100" height="40" as="geometry" />
        </mxCell>
        <mxCell id="sChCSzZciw-ZlIWlT8Ps-1" value="total_harga" style="ellipse;whiteSpace=wrap;html=1;align=center;" vertex="1" parent="1">
          <mxGeometry x="330" y="460" width="100" height="40" as="geometry" />
        </mxCell>
        <mxCell id="sChCSzZciw-ZlIWlT8Ps-2" value="jumlah" style="ellipse;whiteSpace=wrap;html=1;align=center;" vertex="1" parent="1">
          <mxGeometry x="140" y="500" width="100" height="40" as="geometry" />
        </mxCell>
        <mxCell id="sChCSzZciw-ZlIWlT8Ps-3" value="tanggal" style="ellipse;whiteSpace=wrap;html=1;align=center;" vertex="1" parent="1">
          <mxGeometry x="250" y="500" width="100" height="40" as="geometry" />
        </mxCell>
        <mxCell id="e8mMelaJCIQcThRWX6cI-1" value="no_telp" style="ellipse;whiteSpace=wrap;html=1;align=center;" vertex="1" parent="1">
          <mxGeometry x="786" y="400" width="100" height="40" as="geometry" />
        </mxCell>
        <mxCell id="e8mMelaJCIQcThRWX6cI-2" value="jenis_kelamin" style="ellipse;whiteSpace=wrap;html=1;align=center;" vertex="1" parent="1">
          <mxGeometry x="716" y="450" width="100" height="40" as="geometry" />
        </mxCell>
        <mxCell id="e8mMelaJCIQcThRWX6cI-5" value="Menyimpan" style="shape=rhombus;perimeter=rhombusPerimeter;whiteSpace=wrap;html=1;align=center;" vertex="1" parent="1">
          <mxGeometry x="168" y="250" width="120" height="60" as="geometry" />
        </mxCell>
        <mxCell id="e8mMelaJCIQcThRWX6cI-6" value="" style="endArrow=none;html=1;rounded=0;" edge="1" parent="1" source="ivCK7IDDiffH-H41qgAb-3" target="P-C4tjloRPnvRYGFdIHw-4">
          <mxGeometry relative="1" as="geometry">
            <mxPoint x="120" y="220" as="sourcePoint" />
            <mxPoint x="280" y="220" as="targetPoint" />
          </mxGeometry>
        </mxCell>
        <mxCell id="e8mMelaJCIQcThRWX6cI-7" value="" style="endArrow=none;html=1;rounded=0;" edge="1" parent="1" source="ivCK7IDDiffH-H41qgAb-2" target="P-C4tjloRPnvRYGFdIHw-4">
          <mxGeometry relative="1" as="geometry">
            <mxPoint x="133" y="191" as="sourcePoint" />
            <mxPoint x="188" y="180" as="targetPoint" />
          </mxGeometry>
        </mxCell>
        <mxCell id="e8mMelaJCIQcThRWX6cI-8" value="" style="endArrow=none;html=1;rounded=0;" edge="1" parent="1" source="ivCK7IDDiffH-H41qgAb-1" target="P-C4tjloRPnvRYGFdIHw-4">
          <mxGeometry relative="1" as="geometry">
            <mxPoint x="143" y="201" as="sourcePoint" />
            <mxPoint x="198" y="190" as="targetPoint" />
          </mxGeometry>
        </mxCell>
        <mxCell id="e8mMelaJCIQcThRWX6cI-9" value="" style="endArrow=none;html=1;rounded=0;" edge="1" parent="1" source="dtMFHtKdHxjo49acTgCn-1" target="P-C4tjloRPnvRYGFdIHw-4">
          <mxGeometry relative="1" as="geometry">
            <mxPoint x="153" y="211" as="sourcePoint" />
            <mxPoint x="208" y="200" as="targetPoint" />
          </mxGeometry>
        </mxCell>
        <mxCell id="e8mMelaJCIQcThRWX6cI-10" value="" style="endArrow=none;html=1;rounded=0;" edge="1" parent="1" source="dtMFHtKdHxjo49acTgCn-2" target="P-C4tjloRPnvRYGFdIHw-4">
          <mxGeometry relative="1" as="geometry">
            <mxPoint x="163" y="221" as="sourcePoint" />
            <mxPoint x="218" y="210" as="targetPoint" />
          </mxGeometry>
        </mxCell>
        <mxCell id="e8mMelaJCIQcThRWX6cI-11" value="" style="endArrow=none;html=1;rounded=0;" edge="1" parent="1" source="P-C4tjloRPnvRYGFdIHw-1" target="ySXQT9itUy0VhF5xuerT-1">
          <mxGeometry relative="1" as="geometry">
            <mxPoint x="173" y="231" as="sourcePoint" />
            <mxPoint x="228" y="220" as="targetPoint" />
          </mxGeometry>
        </mxCell>
        <mxCell id="e8mMelaJCIQcThRWX6cI-12" value="" style="endArrow=none;html=1;rounded=0;" edge="1" parent="1" source="nD-tLIVnVdCgKJPwyJXA-1" target="ySXQT9itUy0VhF5xuerT-1">
          <mxGeometry relative="1" as="geometry">
            <mxPoint x="183" y="241" as="sourcePoint" />
            <mxPoint x="238" y="230" as="targetPoint" />
          </mxGeometry>
        </mxCell>
        <mxCell id="e8mMelaJCIQcThRWX6cI-13" value="" style="endArrow=none;html=1;rounded=0;" edge="1" parent="1" source="hZo2cC3H7jz-Q43Mulw--1" target="ySXQT9itUy0VhF5xuerT-1">
          <mxGeometry relative="1" as="geometry">
            <mxPoint x="130" y="437" as="sourcePoint" />
            <mxPoint x="188" y="433" as="targetPoint" />
          </mxGeometry>
        </mxCell>
        <mxCell id="e8mMelaJCIQcThRWX6cI-14" value="" style="endArrow=none;html=1;rounded=0;" edge="1" parent="1" source="sChCSzZciw-ZlIWlT8Ps-2" target="ySXQT9itUy0VhF5xuerT-1">
          <mxGeometry relative="1" as="geometry">
            <mxPoint x="140" y="447" as="sourcePoint" />
            <mxPoint x="198" y="443" as="targetPoint" />
          </mxGeometry>
        </mxCell>
        <mxCell id="e8mMelaJCIQcThRWX6cI-15" value="" style="endArrow=none;html=1;rounded=0;" edge="1" parent="1" source="sChCSzZciw-ZlIWlT8Ps-3" target="ySXQT9itUy0VhF5xuerT-1">
          <mxGeometry relative="1" as="geometry">
            <mxPoint x="150" y="457" as="sourcePoint" />
            <mxPoint x="208" y="453" as="targetPoint" />
          </mxGeometry>
        </mxCell>
        <mxCell id="e8mMelaJCIQcThRWX6cI-16" value="" style="endArrow=none;html=1;rounded=0;" edge="1" parent="1" source="sChCSzZciw-ZlIWlT8Ps-1" target="ySXQT9itUy0VhF5xuerT-1">
          <mxGeometry relative="1" as="geometry">
            <mxPoint x="160" y="467" as="sourcePoint" />
            <mxPoint x="218" y="463" as="targetPoint" />
          </mxGeometry>
        </mxCell>
        <mxCell id="e8mMelaJCIQcThRWX6cI-17" value="" style="endArrow=none;html=1;rounded=0;" edge="1" parent="1" source="itSn3BqU-BL6ogPDw5yf-1" target="ySXQT9itUy0VhF5xuerT-3">
          <mxGeometry relative="1" as="geometry">
            <mxPoint x="354" y="476" as="sourcePoint" />
            <mxPoint x="288" y="450" as="targetPoint" />
          </mxGeometry>
        </mxCell>
        <mxCell id="e8mMelaJCIQcThRWX6cI-18" value="" style="endArrow=none;html=1;rounded=0;" edge="1" parent="1" source="e8mMelaJCIQcThRWX6cI-2" target="ySXQT9itUy0VhF5xuerT-3">
          <mxGeometry relative="1" as="geometry">
            <mxPoint x="672" y="451" as="sourcePoint" />
            <mxPoint x="698" y="410" as="targetPoint" />
          </mxGeometry>
        </mxCell>
        <mxCell id="e8mMelaJCIQcThRWX6cI-19" value="" style="endArrow=none;html=1;rounded=0;" edge="1" parent="1" source="ySXQT9itUy0VhF5xuerT-3" target="e8mMelaJCIQcThRWX6cI-1">
          <mxGeometry relative="1" as="geometry">
            <mxPoint x="682" y="461" as="sourcePoint" />
            <mxPoint x="708" y="420" as="targetPoint" />
          </mxGeometry>
        </mxCell>
        <mxCell id="e8mMelaJCIQcThRWX6cI-20" value="" style="endArrow=none;html=1;rounded=0;" edge="1" parent="1" source="ySXQT9itUy0VhF5xuerT-3" target="ivCK7IDDiffH-H41qgAb-4">
          <mxGeometry relative="1" as="geometry">
            <mxPoint x="692" y="471" as="sourcePoint" />
            <mxPoint x="718" y="430" as="targetPoint" />
          </mxGeometry>
        </mxCell>
        <mxCell id="e8mMelaJCIQcThRWX6cI-21" value="" style="endArrow=none;html=1;rounded=0;" edge="1" parent="1" source="ySXQT9itUy0VhF5xuerT-3" target="P-C4tjloRPnvRYGFdIHw-2">
          <mxGeometry relative="1" as="geometry">
            <mxPoint x="702" y="481" as="sourcePoint" />
            <mxPoint x="728" y="440" as="targetPoint" />
          </mxGeometry>
        </mxCell>
        <mxCell id="e8mMelaJCIQcThRWX6cI-22" value="" style="endArrow=none;html=1;rounded=0;" edge="1" parent="1" source="ySXQT9itUy0VhF5xuerT-2" target="itSn3BqU-BL6ogPDw5yf-2">
          <mxGeometry relative="1" as="geometry">
            <mxPoint x="712" y="491" as="sourcePoint" />
            <mxPoint x="738" y="450" as="targetPoint" />
          </mxGeometry>
        </mxCell>
        <mxCell id="e8mMelaJCIQcThRWX6cI-23" value="" style="endArrow=none;html=1;rounded=0;" edge="1" parent="1" source="ySXQT9itUy0VhF5xuerT-2" target="ivCK7IDDiffH-H41qgAb-6">
          <mxGeometry relative="1" as="geometry">
            <mxPoint x="722" y="501" as="sourcePoint" />
            <mxPoint x="748" y="460" as="targetPoint" />
          </mxGeometry>
        </mxCell>
        <mxCell id="e8mMelaJCIQcThRWX6cI-24" value="" style="endArrow=none;html=1;rounded=0;" edge="1" parent="1" source="ySXQT9itUy0VhF5xuerT-2" target="ivCK7IDDiffH-H41qgAb-5">
          <mxGeometry relative="1" as="geometry">
            <mxPoint x="732" y="511" as="sourcePoint" />
            <mxPoint x="758" y="470" as="targetPoint" />
          </mxGeometry>
        </mxCell>
        <mxCell id="e8mMelaJCIQcThRWX6cI-25" value="" style="endArrow=none;html=1;rounded=0;" edge="1" parent="1" source="ySXQT9itUy0VhF5xuerT-2" target="P-C4tjloRPnvRYGFdIHw-3">
          <mxGeometry relative="1" as="geometry">
            <mxPoint x="742" y="521" as="sourcePoint" />
            <mxPoint x="768" y="480" as="targetPoint" />
          </mxGeometry>
        </mxCell>
        <mxCell id="e8mMelaJCIQcThRWX6cI-26" value="" style="endArrow=none;html=1;rounded=0;entryX=0.5;entryY=1;entryDx=0;entryDy=0;" edge="1" parent="1" source="e8mMelaJCIQcThRWX6cI-5" target="P-C4tjloRPnvRYGFdIHw-4">
          <mxGeometry relative="1" as="geometry">
            <mxPoint x="-10" y="300" as="sourcePoint" />
            <mxPoint x="220" y="200" as="targetPoint" />
          </mxGeometry>
        </mxCell>
        <mxCell id="e8mMelaJCIQcThRWX6cI-27" value="1" style="resizable=0;html=1;whiteSpace=wrap;align=right;verticalAlign=bottom;" connectable="0" vertex="1" parent="e8mMelaJCIQcThRWX6cI-26">
          <mxGeometry x="1" relative="1" as="geometry" />
        </mxCell>
        <mxCell id="e8mMelaJCIQcThRWX6cI-28" value="" style="endArrow=none;html=1;rounded=0;" edge="1" parent="1" source="e8mMelaJCIQcThRWX6cI-5" target="ySXQT9itUy0VhF5xuerT-1">
          <mxGeometry relative="1" as="geometry">
            <mxPoint x="90" y="340" as="sourcePoint" />
            <mxPoint x="250" y="340" as="targetPoint" />
          </mxGeometry>
        </mxCell>
        <mxCell id="e8mMelaJCIQcThRWX6cI-29" value="N" style="resizable=0;html=1;whiteSpace=wrap;align=right;verticalAlign=bottom;" connectable="0" vertex="1" parent="e8mMelaJCIQcThRWX6cI-28">
          <mxGeometry x="1" relative="1" as="geometry" />
        </mxCell>
        <mxCell id="e8mMelaJCIQcThRWX6cI-30" value="" style="endArrow=none;html=1;rounded=0;" edge="1" parent="1" source="itSn3BqU-BL6ogPDw5yf-4" target="ySXQT9itUy0VhF5xuerT-1">
          <mxGeometry relative="1" as="geometry">
            <mxPoint x="238" y="320" as="sourcePoint" />
            <mxPoint x="238" y="410" as="targetPoint" />
          </mxGeometry>
        </mxCell>
        <mxCell id="e8mMelaJCIQcThRWX6cI-31" value="N" style="resizable=0;html=1;whiteSpace=wrap;align=right;verticalAlign=bottom;" connectable="0" vertex="1" parent="e8mMelaJCIQcThRWX6cI-30">
          <mxGeometry x="1" relative="1" as="geometry" />
        </mxCell>
        <mxCell id="e8mMelaJCIQcThRWX6cI-32" value="" style="endArrow=none;html=1;rounded=0;" edge="1" parent="1" source="itSn3BqU-BL6ogPDw5yf-3" target="P-C4tjloRPnvRYGFdIHw-4">
          <mxGeometry relative="1" as="geometry">
            <mxPoint x="248" y="330" as="sourcePoint" />
            <mxPoint x="248" y="420" as="targetPoint" />
          </mxGeometry>
        </mxCell>
        <mxCell id="e8mMelaJCIQcThRWX6cI-33" value="N" style="resizable=0;html=1;whiteSpace=wrap;align=right;verticalAlign=bottom;" connectable="0" vertex="1" parent="e8mMelaJCIQcThRWX6cI-32">
          <mxGeometry x="1" relative="1" as="geometry" />
        </mxCell>
        <mxCell id="vogecsOkmRsvb0KzGIHy-1" value="" style="endArrow=none;html=1;rounded=0;" edge="1" parent="1" source="itSn3BqU-BL6ogPDw5yf-3" target="ySXQT9itUy0VhF5xuerT-2">
          <mxGeometry relative="1" as="geometry">
            <mxPoint x="238" y="260" as="sourcePoint" />
            <mxPoint x="238" y="190" as="targetPoint" />
          </mxGeometry>
        </mxCell>
        <mxCell id="vogecsOkmRsvb0KzGIHy-2" value="1" style="resizable=0;html=1;whiteSpace=wrap;align=right;verticalAlign=bottom;" connectable="0" vertex="1" parent="vogecsOkmRsvb0KzGIHy-1">
          <mxGeometry x="1" relative="1" as="geometry" />
        </mxCell>
        <mxCell id="vogecsOkmRsvb0KzGIHy-3" value="" style="endArrow=none;html=1;rounded=0;" edge="1" parent="1" source="itSn3BqU-BL6ogPDw5yf-4" target="ySXQT9itUy0VhF5xuerT-3">
          <mxGeometry relative="1" as="geometry">
            <mxPoint x="248" y="270" as="sourcePoint" />
            <mxPoint x="248" y="200" as="targetPoint" />
          </mxGeometry>
        </mxCell>
        <mxCell id="vogecsOkmRsvb0KzGIHy-4" value="1" style="resizable=0;html=1;whiteSpace=wrap;align=right;verticalAlign=bottom;" connectable="0" vertex="1" parent="vogecsOkmRsvb0KzGIHy-3">
          <mxGeometry x="1" relative="1" as="geometry" />
        </mxCell>
      </root>
    </mxGraphModel>
  </diagram>
</mxfile>
